<svg class="MuiSvgIcon-root MuiSvgIcon-fontSizeMedium mui-1ln23jt" focusable="false" aria-hidden="true" viewBox="0 0 522 107" fill="none" xmlns="http://www.w3.org/2000/svg"><g clip-path="url(#clip0_9257_18550)"><path d="M39.228 60.649a8.903 8.903 0 1 0-8.903-8.903 8.874 8.874 0 0 0 8.903 8.903ZM67.604 60.649a8.902 8.902 0 1 0-8.89-8.903 8.876 8.876 0 0 0 8.89 8.903Z" fill="#fff"></path><path d="m99.18 87.078-2.504-2.503-12.937-12.937a35.274 35.274 0 0 1-30.463 17.398 35.51 35.51 0 0 1-30.742-17.67L9.598 84.296a54.046 54.046 0 0 0 12.518 12.659 53.362 53.362 0 0 0 31.162 10.014 52.702 52.702 0 0 0 30.88-9.875l2.506 2.503a8.856 8.856 0 0 0 9.647 1.919 8.856 8.856 0 0 0 5.464-8.178 8.848 8.848 0 0 0-2.593-6.259h-.003Z" fill="url(#a)"></path><path d="M105.856 44.79a52.777 52.777 0 0 0-9.319-22.255 54.059 54.059 0 0 0-12.659-12.52 53.306 53.306 0 0 0-61.62.138 53.518 53.518 0 0 0-12.521 12.52A51.237 51.237 0 0 0 .696 44.652 62.153 62.153 0 0 0 0 53.556c.018 2.98.25 5.956.696 8.903h18.212a36.2 36.2 0 0 1 0-17.805 34.574 34.574 0 0 1 3.765-9.038 35.269 35.269 0 0 1 30.464-17.397 35.473 35.473 0 0 1 17.81 4.732 36.368 36.368 0 0 1 12.66 12.52c1.668 2.92 3.06 5.98 3.895 9.319a36.2 36.2 0 0 1 0 17.805h18.359c.445-2.947.678-5.922.696-8.903a62.285 62.285 0 0 0-.701-8.902Z" fill="url(#b)"></path><path d="M151.137 79.185a24.904 24.904 0 0 1-9.813-1.903 24.107 24.107 0 0 1-7.883-5.352 24.68 24.68 0 0 1-5.252-8.063 26.544 26.544 0 0 1-1.884-10.109 27.298 27.298 0 0 1 1.849-10.145 23.684 23.684 0 0 1 13.119-13.347 25.458 25.458 0 0 1 9.864-1.897c3.569 0 6.774.594 9.615 1.783a22.233 22.233 0 0 1 7.239 4.757 17.287 17.287 0 0 1 4.23 6.608l-9.052 4.35a12.396 12.396 0 0 0-4.399-5.902c-2.093-1.562-4.637-2.344-7.633-2.346-2.899 0-5.454.684-7.665 2.05a13.828 13.828 0 0 0-5.111 5.649c-1.212 2.403-1.817 5.212-1.816 8.426.002 3.215.607 6.034 1.816 8.457a13.772 13.772 0 0 0 5.122 5.684c2.203 1.365 4.758 2.047 7.665 2.047 2.996 0 5.54-.782 7.633-2.346a12.389 12.389 0 0 0 4.396-5.912l9.052 4.35a17.246 17.246 0 0 1-4.238 6.618 22.188 22.188 0 0 1-7.236 4.757c-2.844 1.191-6.049 1.786-9.618 1.786ZM178.032 78.392V28.374h9.911v50.018h-9.911ZM213.114 79.185a19.689 19.689 0 0 1-9.745-2.446 18.762 18.762 0 0 1-7.005-6.707c-1.742-2.841-2.611-6.068-2.61-9.68 0-3.655.87-6.893 2.61-9.715a18.851 18.851 0 0 1 7.005-6.673 20.573 20.573 0 0 1 19.461 0 18.971 18.971 0 0 1 6.972 6.673c1.742 2.82 2.613 6.058 2.613 9.715 0 3.614-.87 6.84-2.61 9.68a18.874 18.874 0 0 1-6.973 6.707 19.517 19.517 0 0 1-9.718 2.446Zm0-8.922a8.48 8.48 0 0 0 7.903-4.746 11.1 11.1 0 0 0 1.158-5.165 10.907 10.907 0 0 0-1.158-5.12 9.009 9.009 0 0 0-3.173-3.505 8.571 8.571 0 0 0-4.73-1.288 8.748 8.748 0 0 0-4.757 1.288 8.931 8.931 0 0 0-3.205 3.504 10.903 10.903 0 0 0-1.15 5.121c-.037 1.79.36 3.562 1.156 5.165a8.628 8.628 0 0 0 3.205 3.502 8.914 8.914 0 0 0 4.751 1.244ZM251.17 79.185c-2.899 0-5.377-.628-7.432-1.884a11.996 11.996 0 0 1-4.648-5.26c-1.058-2.245-1.588-4.866-1.588-7.861V42.31h9.914v21.081c-.03 1.25.25 2.488.816 3.602a5.858 5.858 0 0 0 2.346 2.412 7.363 7.363 0 0 0 6.904 0 5.936 5.936 0 0 0 2.313-2.412 7.579 7.579 0 0 0 .816-3.601V42.31h9.911v36.08h-9.242v-7.135l.527 1.585c-.837 2.158-2.192 3.755-4.064 4.792-1.872 1.037-4.063 1.554-6.573 1.552ZM294.796 79.185c-3.526 0-6.677-.837-9.451-2.511a18.209 18.209 0 0 1-6.573-6.796 19.074 19.074 0 0 1-2.414-9.514 18.83 18.83 0 0 1 2.446-9.55 18.534 18.534 0 0 1 6.617-6.771 17.669 17.669 0 0 1 9.318-2.512 15.972 15.972 0 0 1 7.035 1.487 11.879 11.879 0 0 1 4.85 4.183l-1.52 1.982V28.37h9.914v50.017h-9.242v-6.603l.927 2.05a11.462 11.462 0 0 1-5.024 3.996 17.331 17.331 0 0 1-6.883 1.356Zm1.188-8.921a8.928 8.928 0 0 0 4.76-1.256 8.671 8.671 0 0 0 3.205-3.49 12.076 12.076 0 0 0 0-10.311 8.7 8.7 0 0 0-3.205-3.501 8.93 8.93 0 0 0-4.76-1.256 9.243 9.243 0 0 0-4.855 1.288 8.97 8.97 0 0 0-3.338 3.504 10.65 10.65 0 0 0-1.191 5.122 10.85 10.85 0 0 0 1.191 5.164 8.67 8.67 0 0 0 3.338 3.48 9.434 9.434 0 0 0 4.855 1.256ZM347.669 79.184a27.333 27.333 0 0 1-10.307-1.902 24.986 24.986 0 0 1-15.794-23.524 25.595 25.595 0 0 1 1.949-10.045 24.249 24.249 0 0 1 5.486-8.062 25.341 25.341 0 0 1 8.293-5.352 29.04 29.04 0 0 1 20.749 0 25.335 25.335 0 0 1 8.294 5.352 24.24 24.24 0 0 1 5.482 8.062 25.597 25.597 0 0 1 1.952 10.044 25.003 25.003 0 0 1-15.793 23.525 27.34 27.34 0 0 1-10.311 1.902Zm0-9.242a16.16 16.16 0 0 0 6.252-1.188 15.673 15.673 0 0 0 5.054-3.338 14.779 14.779 0 0 0 3.37-5.121 17.434 17.434 0 0 0 1.191-6.54 17.179 17.179 0 0 0-1.191-6.51 15.256 15.256 0 0 0-3.37-5.122 14.995 14.995 0 0 0-5.054-3.338 17.46 17.46 0 0 0-12.504 0 15.002 15.002 0 0 0-5.056 3.338 15.209 15.209 0 0 0-3.37 5.11 17.179 17.179 0 0 0-1.191 6.51 17.433 17.433 0 0 0 1.191 6.541 14.723 14.723 0 0 0 3.368 5.121 15.67 15.67 0 0 0 5.056 3.338 16.153 16.153 0 0 0 6.254 1.188v.011ZM358.11 84.35 343.432 58.71h10.574l14.869 25.64H358.11ZM393.255 79.185c-2.899 0-5.378-.628-7.434-1.884a12 12 0 0 1-4.66-5.26c-1.058-2.245-1.586-4.866-1.584-7.861V42.31h9.911v21.081a7.542 7.542 0 0 0 .815 3.602 5.864 5.864 0 0 0 2.346 2.412 7.366 7.366 0 0 0 6.905 0 5.942 5.942 0 0 0 2.313-2.412 7.542 7.542 0 0 0 .815-3.601V42.31h9.912v36.08h-9.243v-7.135l.53 1.585c-.839 2.158-2.198 3.755-4.077 4.792-1.88 1.037-4.062 1.554-6.549 1.552ZM437.264 79.185c-3.832 0-7.159-.848-9.979-2.544a17.574 17.574 0 0 1-6.54-6.84 19.716 19.716 0 0 1-2.313-9.514c0-3.61.804-6.825 2.411-9.647a18 18 0 0 1 6.508-6.674 17.703 17.703 0 0 1 9.242-2.446c2.863 0 5.396.453 7.598 1.359a15.62 15.62 0 0 1 5.586 3.806 16.773 16.773 0 0 1 3.469 5.651 19.892 19.892 0 0 1 1.188 6.973c0 .703-.033 1.396-.098 2.08a7.148 7.148 0 0 1-.365 1.752h-27.025v-7.285h21.409l-4.692 3.44c.441-1.896.419-3.582-.065-5.057a6.771 6.771 0 0 0-2.544-3.504c-1.213-.859-2.699-1.288-4.461-1.288a7.718 7.718 0 0 0-4.428 1.255c-1.234.838-2.159 2.072-2.776 3.703-.616 1.63-.854 3.613-.714 5.947-.182 2.025.06 3.809.725 5.353a7.755 7.755 0 0 0 3.039 3.602c1.369.859 3.021 1.288 4.959 1.288a9.122 9.122 0 0 0 4.526-1.057 7.611 7.611 0 0 0 2.941-2.909l7.929 3.781a11.991 11.991 0 0 1-3.338 4.621 16.42 16.42 0 0 1-5.385 3.075 20.457 20.457 0 0 1-6.807 1.08ZM460.261 78.391v-36.08h9.242v8.658l-.66-1.256c.792-3.043 2.102-5.102 3.93-6.179 1.829-1.076 4.004-1.62 6.524-1.63h2.113v8.589h-3.108c-2.421 0-4.381.738-5.879 2.215-1.499 1.477-2.248 3.562-2.248 6.253v19.428l-9.914.002ZM491.383 92.929c-1.03 0-2.058-.09-3.072-.272a8.883 8.883 0 0 1-2.612-.859V83.67c.715.196 1.441.35 2.174.462a14.76 14.76 0 0 0 2.314.199c1.935 0 3.322-.453 4.162-1.36.84-.91 1.532-1.948 2.049-3.074l2.447-5.616-.133 8.261-15.859-40.231h10.639l10.507 28.613h-3.964l10.507-28.613h10.639l-15.464 39.451a22.146 22.146 0 0 1-3.567 6.211 13.757 13.757 0 0 1-4.792 3.735 14.267 14.267 0 0 1-5.975 1.221Z" fill="#fff"></path></g><defs><radialGradient cx="0" cy="0" gradientTransform="translate(53.267 54.057) scale(58.4731)" gradientUnits="userSpaceOnUse" id="a" r="1"><stop offset=".55" stop-color="#178064"></stop><stop offset=".57" stop-color="#178764"></stop><stop offset=".64" stop-color="#179A64"></stop><stop offset=".71" stop-color="#17A864"></stop><stop offset=".81" stop-color="#17B064"></stop><stop offset="1" stop-color="#17B264"></stop></radialGradient><radialGradient cx="0" cy="0" gradientTransform="translate(53.276 54.056) scale(58.465)" gradientUnits="userSpaceOnUse" id="b" r="1"><stop offset=".55" stop-color="#178064"></stop><stop offset=".57" stop-color="#178764"></stop><stop offset=".64" stop-color="#179A64"></stop><stop offset=".71" stop-color="#17A864"></stop><stop offset=".81" stop-color="#17B064"></stop><stop offset="1" stop-color="#17B264"></stop></radialGradient></defs></svg>